# xmcd CD database file
#
# Track frame offsets:
#	150
#	24845
#	60400
#	99703
#	144760
#	170425
#
# Disc length: 2639 seconds
#
# Revision: 0
# Processed by: cddbd v1.5PL3 Copyright (c) Steve Scherf et al.
# Submitted via: CDex 1.51
#
DISCID=3f0a4d06
DTITLE=Kazumi Watanabe - Village In Bubbles
DYEAR=1978
DGENRE=Jazz
TTITLE0=Park Avenue
TTITLE1=Dance Of Corona
TTITLE2=Village In Bubbles
TTITLE3=Magic Carpet
TTITLE4=Mustache Daddy
TTITLE5=Crystal Rain
EXTD=YEAR: 1978
EXTT0=
EXTT1=
EXTT2=
EXTT3=
EXTT4=
EXTT5=
PLAYORDER=
